<?xml version="1.0" encoding="UTF-8"?><svg id="Layer_1" xmlns="http://www.w3.org/2000/svg" viewBox="0 0 512 512"><defs><style>.cls-1{fill:#fff;}.cls-2{fill:#9a3324;}.cls-3{fill:#2d2a26;}.cls-4{fill:#f5af2d;}</style></defs><path class="cls-2" d="M501,256c0-135.31-109.69-245-245-245S11,120.69,11,256c0,60.02,21.61,114.99,57.44,157.59,0,0,0,0-.01,0,0,0,0,0,0,0,0,0,0,0,0,0,.13,.16,.27,.31,.4,.46,.15,.18,.29,.36,.45,.53h.02c1.06,1.24,2.12,2.48,3.2,3.7,.42,.48,.86,.95,1.28,1.42,.95,1.06,1.9,2.11,2.87,3.15,.54,.58,1.09,1.15,1.63,1.73,.87,.92,1.75,1.84,2.64,2.74,.6,.61,1.2,1.21,1.8,1.82,.86,.86,1.72,1.71,2.58,2.55,.63,.61,1.27,1.23,1.9,1.83,.86,.82,1.73,1.63,2.6,2.43,.65,.61,1.31,1.21,1.97,1.81,.89,.8,1.79,1.59,2.68,2.38,.66,.58,1.31,1.16,1.97,1.73,.99,.85,1.98,1.68,2.98,2.51,.59,.49,1.17,.99,1.77,1.48,1.53,1.25,3.07,2.47,4.63,3.69,.76,.59,1.53,1.16,2.3,1.75,.86,.65,1.72,1.31,2.6,1.96,.85,.62,1.7,1.24,2.56,1.85,.81,.58,1.61,1.16,2.43,1.73,.89,.62,1.79,1.24,2.69,1.85,.79,.54,1.58,1.07,2.37,1.6,.93,.62,1.86,1.23,2.8,1.83,.78,.5,1.56,1,2.34,1.49,.96,.61,1.93,1.21,2.9,1.8,.76,.47,1.54,.92,2.31,1.38,1,.6,2.01,1.19,3.02,1.78,.73,.42,1.46,.82,2.19,1.23,1.07,.6,2.13,1.21,3.21,1.79,0,0,0,0,0,0h0c34.64,18.76,74.31,29.42,116.47,29.42h0c75.09,0,142.27-33.8,187.21-87h.01c.12-.14,.23-.28,.35-.42,.17-.2,.34-.39,.5-.58,0,0-.01,0-.02,0,35.53-42.52,56.94-97.25,56.94-156.99Z"/><g><circle class="cls-1" cx="256.08" cy="255.53" r="156.19"/><path class="cls-3" d="M256.08,375.38c33.39,0,61.71-11.63,84.97-34.89,23.26-23.26,34.89-51.58,34.89-84.97s-11.63-61.71-34.89-84.97c-23.26-23.26-51.58-34.89-84.97-34.89v119.85l-81.76,85.61c10.56,11.13,22.97,19.62,37.24,25.47,14.27,5.85,29.11,8.77,44.52,8.77Z"/><rect class="cls-2" x="256.08" y="94.87" width="5.36" height="30.26" rx="2.68" ry="2.68"/><rect class="cls-2" x="256.08" y="385.94" width="5.36" height="30.26" rx="2.68" ry="2.68"/><rect class="cls-2" x="401.61" y="240.4" width="5.36" height="30.26" rx="2.68" ry="2.68" transform="translate(659.83 -148.76) rotate(90)"/><rect class="cls-2" x="110.55" y="240.4" width="5.36" height="30.26" rx="2.68" ry="2.68" transform="translate(368.76 142.3) rotate(90)"/><rect class="cls-2" x="358.99" y="343.31" width="5.36" height="30.26" rx="2.68" ry="2.68" transform="translate(870.86 356.16) rotate(135)"/><rect class="cls-2" x="153.17" y="137.5" width="5.36" height="30.26" rx="2.68" ry="2.68" transform="translate(373.98 150.34) rotate(135)"/><rect class="cls-2" x="153.17" y="343.31" width="5.36" height="30.26" rx="2.68" ry="2.68" transform="translate(12.6 722.1) rotate(-135)"/><rect class="cls-2" x="358.99" y="137.5" width="5.36" height="30.26" rx="2.68" ry="2.68" transform="translate(509.49 516.29) rotate(-135)"/><rect class="cls-2" x="119.47" y="290.58" width="5.36" height="30.26" rx="2.68" ry="2.68" transform="translate(-122.7 525.76) rotate(-110.17)"/><rect class="cls-2" x="392.69" y="190.23" width="5.36" height="30.26" rx="2.68" ry="2.68" transform="translate(338.91 647.29) rotate(-110.17)"/><rect class="cls-2" x="121.32" y="185.45" width="5.36" height="30.26" rx="2.68" ry="2.68" transform="translate(-108.55 239.66) rotate(-67.82)"/><rect class="cls-2" x="390.84" y="295.36" width="5.36" height="30.26" rx="2.68" ry="2.68" transform="translate(-42.57 557.64) rotate(-67.82)"/><rect class="cls-2" x="197.16" y="107.33" width="5.36" height="30.26" rx="2.68" ry="2.68" transform="translate(-32.47 91.39) rotate(-23.88)"/><rect class="cls-2" x="315" y="373.48" width="5.36" height="30.26" rx="2.68" ry="2.68" transform="translate(-130.13 161.89) rotate(-23.88)"/><rect class="cls-2" x="315.18" y="107.41" width="5.36" height="30.26" rx="2.68" ry="2.68" transform="translate(77.16 -118.53) rotate(23.96)"/><rect class="cls-2" x="196.98" y="373.4" width="5.36" height="30.26" rx="2.68" ry="2.68" transform="translate(174.99 -47.6) rotate(23.96)"/><path class="cls-4" d="M413.81,188.76c-8.99-20.83-21.19-38.95-36.6-54.36-15.41-15.41-33.53-27.61-54.36-36.6-20.83-8.99-43.09-13.48-66.77-13.48s-45.51,4.49-66.35,13.48c-20.83,8.99-39.02,21.19-54.57,36.6-15.55,15.41-27.82,33.53-36.81,54.36-8.99,20.83-13.48,43.09-13.48,66.77s4.49,45.51,13.48,66.35c8.99,20.83,21.26,39.02,36.81,54.57,15.55,15.55,33.74,27.82,54.57,36.81,20.83,8.99,42.95,13.48,66.35,13.48s45.94-4.49,66.77-13.48c20.83-8.99,38.95-21.26,54.36-36.81,15.41-15.55,27.61-33.74,36.6-54.57,8.99-20.83,13.48-42.95,13.48-66.35s-4.49-45.94-13.48-66.77Zm-54.57,169.72c-28.25,28.39-62.64,42.59-103.16,42.59s-74.55-14.2-102.94-42.59c-28.39-28.39-42.59-62.71-42.59-102.94s14.2-74.91,42.59-103.16c28.39-28.25,62.71-42.38,102.94-42.38s74.91,14.13,103.16,42.38c28.25,28.25,42.38,62.64,42.38,103.16s-14.13,74.55-42.38,102.94Z"/></g></svg>